ffmpeg version N-91141-gc24d247e2c Copyright (c) 2000-2018 the FFmpeg developers
  built with gcc 7.3.0 (GCC)
  configuration: --enable-gpl --enable-version3 --enable-sdl2 --enable-bzlib --enable-fontconfig --enable-gnutls --enable-iconv --enable-libass --enable-libbluray --enable-libfreetype --enable-libmp3lame --enable-libopencore-amrnb --enable-libopencore-amrwb --enable-libopenjpeg --enable-libopus --enable-libshine --enable-libsnappy --enable-libsoxr --enable-libtheora --enable-libtwolame --enable-libvpx --enable-libwavpack --enable-libwebp --enable-libx264 --enable-libx265 --enable-libxml2 --enable-libzimg --enable-lzma --enable-zlib --enable-gmp --enable-libvidstab --enable-libvorbis --enable-libvo-amrwbenc --enable-libmysofa --enable-libspeex --enable-libxvid --enable-libaom --enable-libmfx --enable-amf --enable-ffnvcodec --enable-cuvid --enable-d3d11va --enable-nvenc --enable-nvdec --enable-dxva2 --enable-avisynth
  libavutil      56. 18.102 / 56. 18.102
  libavcodec     58. 19.102 / 58. 19.102
  libavformat    58. 16.100 / 58. 16.100
  libavdevice    58.  4.100 / 58.  4.100
  libavfilter     7. 24.100 /  7. 24.100
  libswscale      5.  2.100 /  5.  2.100
  libswresample   3.  2.100 /  3.  2.100
  libpostproc    55.  2.100 / 55.  2.100
Splitting the commandline.
Reading option '-v' ... matched as option 'v' (set logging level) with argument 'debug'.
Reading option '-nostdin' ... matched as option 'stdin' (enable or disable interaction on standard input) with argument 0.
Reading option '-progress' ... matched as option 'progress' (write program-readable progress information) with argument 'C:/Users/tfrit/AppData/Local/Temp/KritaFFmpegProgress.Ak9076'.
Reading option '-r' ... matched as option 'r' (set frame rate (Hz value, fraction or abbreviation)) with argument '14'.
Reading option '-start_number' ... matched as AVOption 'start_number' with argument '0'.
Reading option '-i' ... matched as input url with argument 'C:/Users/tfrit/Documents/castleDefense/Assets/Resources/orb/orb%04d.png'.
Reading option '-vf' ... matched as option 'vf' (set video filters) with argument 'palettegen'.
Reading option '-y' ... matched as option 'y' (overwrite output files) with argument '1'.
Reading option 'C:/Users/tfrit/Documents/castleDefense/Assets/Resources/orb/palette.png' ... matched as output url.
Finished splitting the commandline.
Parsing a group of options: global .
Applying option v (set logging level) with argument debug.
Applying option nostdin (enable or disable interaction on standard input) with argument 0.
Applying option progress (write program-readable progress information) with argument C:/Users/tfrit/AppData/Local/Temp/KritaFFmpegProgress.Ak9076.
[file @ 000002404f88adc0] Setting default whitelist 'file,crypto'
Applying option y (overwrite output files) with argument 1.
Successfully parsed a group of options.
Parsing a group of options: input url C:/Users/tfrit/Documents/castleDefense/Assets/Resources/orb/orb%04d.png.
Applying option r (set frame rate (Hz value, fraction or abbreviation)) with argument 14.
Successfully parsed a group of options.
Opening an input file: C:/Users/tfrit/Documents/castleDefense/Assets/Resources/orb/orb%04d.png.
[image2 @ 000002404f8cb940] Opening 'C:/Users/tfrit/Documents/castleDefense/Assets/Resources/orb/orb0000.png' for reading
[file @ 000002404f8ced00] Setting default whitelist 'file,crypto'
[AVIOContext @ 000002404f8d6e40] Statistics: 1959 bytes read, 0 seeks
[image2 @ 000002404f8cb940] Opening 'C:/Users/tfrit/Documents/castleDefense/Assets/Resources/orb/orb0001.png' for reading
[file @ 000002404f8d7980] Setting default whitelist 'file,crypto'
[AVIOContext @ 000002404f8d7a80] Statistics: 1950 bytes read, 0 seeks
[image2 @ 000002404f8cb940] Opening 'C:/Users/tfrit/Documents/castleDefense/Assets/Resources/orb/orb0002.png' for reading
[file @ 000002404f8d7a00] Setting default whitelist 'file,crypto'
[AVIOContext @ 000002404f8e89c0] Statistics: 1870 bytes read, 0 seeks
[image2 @ 000002404f8cb940] Opening 'C:/Users/tfrit/Documents/castleDefense/Assets/Resources/orb/orb0003.png' for reading
[file @ 000002404f8e9340] Setting default whitelist 'file,crypto'
[AVIOContext @ 000002404f8e89c0] Statistics: 1802 bytes read, 0 seeks
[image2 @ 000002404f8cb940] Opening 'C:/Users/tfrit/Documents/castleDefense/Assets/Resources/orb/orb0004.png' for reading
[file @ 000002404f8e9d00] Setting default whitelist 'file,crypto'
[AVIOContext @ 000002404f8e89c0] Statistics: 1908 bytes read, 0 seeks
[image2 @ 000002404f8cb940] Opening 'C:/Users/tfrit/Documents/castleDefense/Assets/Resources/orb/orb0005.png' for reading
[file @ 000002404f8e9ec0] Setting default whitelist 'file,crypto'
[AVIOContext @ 000002404f8e89c0] Statistics: 2030 bytes read, 0 seeks
[image2 @ 000002404f8cb940] Opening 'C:/Users/tfrit/Documents/castleDefense/Assets/Resources/orb/orb0006.png' for reading
[file @ 000002404f8cfe80] Setting default whitelist 'file,crypto'
[AVIOContext @ 000002404f8e89c0] Statistics: 1993 bytes read, 0 seeks
[image2 @ 000002404f8cb940] Opening 'C:/Users/tfrit/Documents/castleDefense/Assets/Resources/orb/orb0007.png' for reading
[file @ 000002404f8cfe80] Setting default whitelist 'file,crypto'
[AVIOContext @ 000002404f8e89c0] Statistics: 1954 bytes read, 0 seeks
[image2 @ 000002404f8cb940] Opening 'C:/Users/tfrit/Documents/castleDefense/Assets/Resources/orb/orb0008.png' for reading
[file @ 000002404f8d5ac0] Setting default whitelist 'file,crypto'
[AVIOContext @ 000002404f8e89c0] Statistics: 1855 bytes read, 0 seeks
[image2 @ 000002404f8cb940] Opening 'C:/Users/tfrit/Documents/castleDefense/Assets/Resources/orb/orb0009.png' for reading
[file @ 000002404f8d6480] Setting default whitelist 'file,crypto'
[AVIOContext @ 000002404f8e89c0] Statistics: 1800 bytes read, 0 seeks
[image2 @ 000002404f8cb940] Opening 'C:/Users/tfrit/Documents/castleDefense/Assets/Resources/orb/orb0010.png' for reading
[file @ 000002404f8d6480] Setting default whitelist 'file,crypto'
[AVIOContext @ 000002404f8e89c0] Statistics: 1764 bytes read, 0 seeks
[image2 @ 000002404f8cb940] Opening 'C:/Users/tfrit/Documents/castleDefense/Assets/Resources/orb/orb0011.png' for reading
[file @ 000002404f8dc1c0] Setting default whitelist 'file,crypto'
[AVIOContext @ 000002404f8e89c0] Statistics: 1846 bytes read, 0 seeks
[image2 @ 000002404f8cb940] Opening 'C:/Users/tfrit/Documents/castleDefense/Assets/Resources/orb/orb0012.png' for reading
[file @ 000002404f8dc1c0] Setting default whitelist 'file,crypto'
[AVIOContext @ 000002404f8e89c0] Statistics: 1897 bytes read, 0 seeks
[image2 @ 000002404f8cb940] Opening 'C:/Users/tfrit/Documents/castleDefense/Assets/Resources/orb/orb0013.png' for reading
[file @ 000002404f8dc1c0] Setting default whitelist 'file,crypto'
[AVIOContext @ 000002404f8e89c0] Statistics: 2004 bytes read, 0 seeks
[image2 @ 000002404f8cb940] Opening 'C:/Users/tfrit/Documents/castleDefense/Assets/Resources/orb/orb0014.png' for reading
[file @ 000002404f8dc1c0] Setting default whitelist 'file,crypto'
[AVIOContext @ 000002404f8e89c0] Statistics: 1951 bytes read, 0 seeks
Input #0, image2, from 'C:/Users/tfrit/Documents/castleDefense/Assets/Resources/orb/orb%04d.png':
  Duration: 00:00:00.60, start: 0.000000, bitrate: N/A
    Stream #0:0, 15, 1/25: Video: png, 1 reference frame, rgba(pc), 64x64 [SAR 2834:2834 DAR 1:1], 0/1, 25 fps, 25 tbr, 25 tbn, 25 tbc
Successfully opened the file.
Parsing a group of options: output url C:/Users/tfrit/Documents/castleDefense/Assets/Resources/orb/palette.png.
Applying option vf (set video filters) with argument palettegen.
Successfully parsed a group of options.
Opening an output file: C:/Users/tfrit/Documents/castleDefense/Assets/Resources/orb/palette.png.
Successfully opened the file.
detected 8 logical cores
Stream mapping:
  Stream #0:0 -> #0:0 (png (native) -> png (native))
cur_dts is invalid (this is harmless if it occurs once at the start per stream)
    Last message repeated 8 times
[graph 0 input from stream 0:0 @ 000002404f8e6b40] Setting 'video_size' to value '64x64'
[graph 0 input from stream 0:0 @ 000002404f8e6b40] Setting 'pix_fmt' to value '26'
[graph 0 input from stream 0:0 @ 000002404f8e6b40] Setting 'time_base' to value '1/14'
[graph 0 input from stream 0:0 @ 000002404f8e6b40] Setting 'pixel_aspect' to value '2834/2834'
[graph 0 input from stream 0:0 @ 000002404f8e6b40] Setting 'sws_param' to value 'flags=2'
[graph 0 input from stream 0:0 @ 000002404f8e6b40] Setting 'frame_rate' to value '14/1'
[graph 0 input from stream 0:0 @ 000002404f8e6b40] w:64 h:64 pixfmt:rgba tb:1/14 fr:14/1 sar:2834/2834 sws_param:flags=2
[format @ 000002404f8e1280] Setting 'pix_fmts' to value 'rgb24|rgba|rgb48be|rgba64be|pal8|gray|ya8|gray16be|ya16be|monob'
[auto_scaler_0 @ 000002404f8e9e80] Setting 'flags' to value 'bicubic'
[auto_scaler_0 @ 000002404f8e9e80] w:iw h:ih flags:'bicubic' interl:0
[Parsed_palettegen_0 @ 000002404f8d7a00] auto-inserting filter 'auto_scaler_0' between the filter 'graph 0 input from stream 0:0' and the filter 'Parsed_palettegen_0'
[auto_scaler_1 @ 000002404f9037c0] Setting 'flags' to value 'bicubic'
[auto_scaler_1 @ 000002404f9037c0] w:iw h:ih flags:'bicubic' interl:0
[format @ 000002404f8e1280] auto-inserting filter 'auto_scaler_1' between the filter 'Parsed_palettegen_0' and the filter 'format'
[AVFilterGraph @ 000002404f8dcd00] query_formats: 4 queried, 1 merged, 2 already done, 0 delayed
[auto_scaler_1 @ 000002404f9037c0] picking rgba out of 9 ref:bgra alpha:1
[swscaler @ 000002404fd23140] Forcing full internal H chroma due to input having non subsampled chroma
[auto_scaler_0 @ 000002404f8e9e80] w:64 h:64 fmt:rgba sar:2834/2834 -> w:64 h:64 fmt:bgra sar:1/1 flags:0x4
[swscaler @ 000002404fd2fcc0] Forcing full internal H chroma due to input having non subsampled chroma
[auto_scaler_1 @ 000002404f9037c0] w:16 h:16 fmt:bgra sar:1/1 -> w:16 h:16 fmt:rgba sar:1/1 flags:0x4
Output #0, image2, to 'C:/Users/tfrit/Documents/castleDefense/Assets/Resources/orb/palette.png':
  Metadata:
    encoder         : Lavf58.16.100
    Stream #0:0, 0, 1/14: Video: png, 1 reference frame, rgba, 16x16 [SAR 1:1 DAR 1:1], 0/1, q=2-31, 200 kb/s, 14 fps, 14 tbn, 14 tbc
    Metadata:
      encoder         : Lavc58.19.102 png
cur_dts is invalid (this is harmless if it occurs once at the start per stream)
    Last message repeated 14 times
[Parsed_palettegen_0 @ 000002404f8d7a00] 255(+1) colors generated out of 537 colors; ratio=0.474860
[Parsed_palettegen_0 @ 000002404f8d7a00] Dupped color: FF00B4FF
    Last message repeated 5 times
[Parsed_palettegen_0 @ 000002404f8d7a00] Dupped color: FF17BBFF
    Last message repeated 7 times
[Parsed_palettegen_0 @ 000002404f8d7a00] Dupped color: FF27C1F0
[Parsed_palettegen_0 @ 000002404f8d7a00] Dupped color: FF2BC1FF
    Last message repeated 7 times
[Parsed_palettegen_0 @ 000002404f8d7a00] Dupped color: FF3AC5FF
    Last message repeated 7 times
[Parsed_palettegen_0 @ 000002404f8d7a00] Dupped color: FF3EC6FF
    Last message repeated 7 times
[Parsed_palettegen_0 @ 000002404f8d7a00] Dupped color: FF4BCAFF
    Last message repeated 1 times
[Parsed_palettegen_0 @ 000002404f8d7a00] Dupped color: FF4EA3F8
[Parsed_palettegen_0 @ 000002404f8d7a00] Dupped color: FF64D2FF
    Last message repeated 4 times
cur_dts is invalid (this is harmless if it occurs once at the start per stream)
Clipping frame in rate conversion by 0.000008
cur_dts is invalid (this is harmless if it occurs once at the start per stream)
[out_0_0 @ 000002404f8e2980] EOF on sink link out_0_0:default.
No more output streams to write to, finishing.
[image2 @ 000002404f8cdb00] Opening 'C:/Users/tfrit/Documents/castleDefense/Assets/Resources/orb/palette.png' for writing
[file @ 000002404f902dc0] Setting default whitelist 'file,crypto'
[AVIOContext @ 000002404ffb9900] Statistics: 0 seeks, 1 writeouts
frame=    1 fps=0.0 q=-0.0 Lsize=N/A time=00:00:00.07 bitrate=N/A speed=10.2x    
[AVIOContext @ 000002404f8cb800] Statistics: 0 seeks, 1 writeouts
video:1kB audio:0kB subtitle:0kB other streams:0kB global headers:0kB muxing overhead: unknown
Input file #0 (C:/Users/tfrit/Documents/castleDefense/Assets/Resources/orb/orb%04d.png):
  Input stream #0:0 (video): 15 packets read (28583 bytes); 15 frames decoded; 
  Total: 15 packets (28583 bytes) demuxed
Output file #0 (C:/Users/tfrit/Documents/castleDefense/Assets/Resources/orb/palette.png):
  Output stream #0:0 (video): 1 frames encoded; 1 packets muxed (833 bytes); 
  Total: 1 packets (833 bytes) muxed
15 frames successfully decoded, 0 decoding errors
